<?xml version="1.0" encoding="utf-8"?>
<!-- Generator: Adobe Illustrator 19.2.1, SVG Export Plug-In . SVG Version: 6.00 Build 0)  -->
<svg version="1.1" id="layer" xmlns="http://www.w3.org/2000/svg" xmlns:xlink="http://www.w3.org/1999/xlink" x="0px" y="0px"
	 viewBox="0 0 652 652" style="enable-background:new 0 0 652 652;" xml:space="preserve">
<style type="text/css">
	.st0{fill:#808083;}
	.st1{fill:#F0A61F;}
</style>
<g>
	<path class="st0" d="M619.1,314.4c-4.5,0-8.9,0-12.7-2.2c-1.5-0.7-2.2-1.5-3.7-2.2c0.7-0.7,1.5-2.2,1.5-3
		c4.5-7.5,8.2-15.7,8.9-24.6c0.7-6.7,0.7-12.7,0-19.4c-1.5-11.2-5.2-22.4-11.9-31.3c-10.4-14.9-23.9-23.9-41-29.1
		c-0.7,0-2.2-0.7-3-0.7h-0.7c-3-0.7-5.2-0.7-8.2-1.5h-1.5H543h-4.5h-4.5c-1.5,0-3,0-4.5,0.7h-1.5h-0.7c-11.2,2.2-21.6,6.7-30.6,13.4
		c-11.9,8.9-20.1,21.6-25.3,35.8v0.7v0.7V251c-2.2-8.2-6-16.4-11.2-23.9c-8.2-11.2-19.4-18.6-32-22.4c-7.5-2.2-14.9-2.2-23.1-3
		h-48.4h-1.5v35.8l-2.2-6.7c-5.2-14.9-15.7-23.9-31.3-27.6c-6.7-1.5-12.7-1.5-19.4-1.5h-47.7h-1.5V339h33.5v-42.5h1.5h14.2
		c6.7,0,13.4-0.7,20.1-2.2c8.2-1.5,15.7-6,21.6-12.7c5.2-6,8.9-13.4,10.4-20.9c0-0.7,0-0.7,0.7-1.5V339h1.5h52.2
		c6,0,11.9-0.7,17.9-2.2c13.4-3.7,23.9-10.4,32.8-20.9c5.2-7.5,8.9-15.7,11.2-24.6c0,0,0-0.7,0.7-1.5c0,0.7,0.7,1.5,0.7,1.5
		c4.5,13.4,11.9,24.6,23.1,33.5c15.7,11.9,33.5,17.1,53.7,15.7c7.5-0.7,14.2-2.2,21.6-5.2c3-1.5,6.7-3,9.7-4.5l1.5,1.5
		c3.7,3.7,8.9,6,13.4,6.7c4.5,1.5,9.7,2.2,14.9,2.2c3.7,0,7.5,0,10.4-0.7v-27.6C620.6,314.4,619.8,314.4,619.1,314.4 M321.7,254
		c-1.5,4.5-4.5,8.2-8.9,9.7c-3,1.5-6.7,1.5-9.7,1.5h-16.4v-32h0.7H303c3,0,6.7,0.7,9.7,1.5c5.2,2.2,8.9,6,9.7,11.9
		C322.4,248.8,322.4,251,321.7,254 M438.7,274.9c0,5.2-0.7,9.7-3,14.9c-3.7,10.4-11.2,16.4-22.4,18.6c-2.2,0.7-5.2,0.7-7.5,0.7H391
		h-0.7v-76h0.7h17.1c6.7,0,13.4,2.2,18.6,6.7c5.2,4.5,8.2,9.7,9.7,15.7C438.7,262.2,438.7,268.1,438.7,274.9 M537.8,311.4
		c-10.4-0.7-18.6-6-24.6-13.4c-2.2-3-3.7-6-5.2-8.9c2.2-0.7,3.7-1.5,6-1.5c7.5-1.5,14.2,0,20.9,3c7.5,3,13.4,8.2,17.9,14.2l2.2,2.2
		C549.8,309.9,544.5,311.4,537.8,311.4 M577.3,283.1c-0.7,2.2-1.5,3.7-2.2,6.7c-1.5-1.5-2.2-2.2-3-3.7c-3.7-5.2-8.2-8.9-13.4-12.7
		c-6-4.5-11.9-7.5-18.6-10.4c-5.2-2.2-10.4-3-15.7-3c-6,0-11.9,1.5-17.9,3.7c-0.7,0-0.7,0-1.5,0.7c2.2-13.4,8.2-23.9,20.9-30.6
		c4.5-2.2,9.7-3.7,14.9-3.7c6.7,0,12.7,0.7,18.6,3.7c10.4,5.2,17.1,13.4,19.4,24.6C580.3,267.4,580.3,275.6,577.3,283.1"/>
	<path class="st1" d="M105.5,422.4h1.5c-0.7-0.7-0.7-0.7-1.5-0.7c-2.2-1.5-5.2-3-7.5-4.5c-11.2-8.9-18.6-20.1-23.1-33.5
		c-3-9.7-4.5-20.1-3.7-30.6c0.7-8.2,2.2-16.4,5.2-23.9c5.2-13.4,14.2-24.6,26.8-32c8.2-4.5,16.4-7.5,26.1-8.9
		c4.5-0.7,9.7-0.7,14.2,0c6,0.7,11.2,1.5,16.4,3.7s10.4,6,14.2,9.7c0.7,0.7,0.7,0.7,1.5,0.7v-62.6h39.5v182.6h25.3V202.6h-1.5H22.1
		h-1.5v219.9h1.5H105.5 M34,215.2h0.7h11.9c1.5,0,2.2,0,3.7,0.7c3,0,5.2,2.2,6.7,5.2v0.7c0,0,0,0.7,0.7,0.7v-7.5h0.7h12.7
		c6,0,10.4,3,13.4,8.9c0,0.7,0.7,1.5,0.7,2.2c2.2-6,6-9.7,11.9-11.2c4.5-1.5,8.9-0.7,12.7,1.5c7.5,3.7,11.9,14.2,6,23.9
		c0.7,1.5,2.2,0.7,3.7,1.5v6.7c-3.7,0-6.7,0-9.7-2.2c-4.5,3-9.7,3-14.9,1.5c-3.7-3-7.5-6-9.7-11.9v1.5c-2.2,6-7.5,9.7-14.2,9.7H58.6
		h-0.7v-17.1c-1.5,4.5-5.2,6.7-10.4,6.7c-1.5,0.7-3,0-5.2,0v10.4h-7.5C34,246.5,34,217.5,34,215.2"/>
	<path class="st1" d="M414.1,418c2.2,0.7,3.7,2.2,6,3.7c4.5,2.2,9.7,3,14.2,2.2c9.7-0.7,17.1-6,21.6-14.2c6-10.4,5.2-21.6,0-32
		c-3-6.7-8.9-11.2-15.7-13.4c-3.7-1.5-7.5-1.5-11.9-1.5c-6,0-11.2,2.2-14.9,6.7l-0.7,0.7v-6h-16.4v76.8h17.9L414.1,418 M428.3,379.2
		c8.9,0,14.9,7.5,14.9,14.9c0,6.7-5.2,14.2-14.2,14.9c-8.2,0-14.9-6.7-14.9-14.9C413.4,385.2,420.8,379.2,428.3,379.2"/>
	<path class="st1" d="M572.1,441.1L572.1,441.1h18.6H572.1"/>
	<path class="st1" d="M296.3,347.9c-4.5-1.5-9.7-2.2-14.9-2.2h-27.6h-1.5v76.8h1.5h27.6c2.2,0,5.2,0,7.5-0.7
		c12.7-2.2,22.4-8.9,26.8-20.9c3.7-8.9,4.5-18.6,1.5-27.6C315.7,360.6,308.3,352.4,296.3,347.9 M298.6,393.4
		c-2.2,6.7-6.7,10.4-13.4,11.2c-4.5,0.7-8.2,0-12.7,0c-0.7-1.5-0.7-38,0-41.7h0.7h9.7c2.2,0,4.5,0.7,6.7,1.5
		c4.5,2.2,7.5,5.2,8.9,9.7C300.1,380.7,300.8,386.7,298.6,393.4"/>
	<path class="st1" d="M162.9,330.8c-10.4-6.7-21.6-6.7-32.8-2.2c-8.9,3.7-14.9,10.4-17.9,19.4c-1.5,5.2-2.2,11.2-0.7,17.1
		c1.5,9.7,6,17.1,14.2,22.4c6,3.7,11.9,5.2,18.6,5.2c2.2,0,3.7,0,6-0.7c10.4-1.5,18.6-7.5,23.9-16.4c3.7-6.7,4.5-13.4,3.7-20.9
		C176.3,344.2,171.9,336,162.9,330.8"/>
	<path class="st1" d="M361.2,362.8c-18.6-2.2-32.8,10.4-35,27.6c-1.5,17.1,11.2,32.8,28.3,33.5c8.2,0.7,14.9-1.5,20.9-6.7
		c4.5-3.7,8.9-10.4,8.9-12.7h-1.5h-14.2c-1.5,0-2.2,0-3,1.5c-4.5,5.2-11.9,4.5-16.4,3c-3.7-1.5-6-5.2-6.7-9.7h44
		C390.3,384.4,381.3,365.8,361.2,362.8 M344,387.4c0.7-3,2.2-6,5.2-7.5c3-2.2,6.7-2.2,10.4-2.2c3,0,5.2,1.5,7.5,3
		c1.5,1.5,3,3.7,3.7,6.7C370.9,387.4,344,387.4,344,387.4z"/>
	<path class="st1" d="M545.3,367.3c-5.2-3-11.2-4.5-17.1-4.5c-2.2,0-5.2,0.7-7.5,0.7c-8.9,2.2-16.4,7.5-20.9,15.7
		c-3,6-3.7,11.9-3,18.6c1.5,9.7,6,17.1,14.2,21.6c7.5,4.5,15.7,5.2,24.6,3.7c6.7-1.5,12.7-4.5,17.1-10.4c6-6.7,8.2-14.9,6.7-23.9
		C558,379.9,553.5,372.5,545.3,367.3 M537.1,404.5c-7.5,6-20.1,3.7-22.4-8.2c-1.5-6.7,1.5-14.2,8.2-16.4c1.5-0.7,3.7-1.5,6-1.5
		c6,0,9.7,3,12.7,8.2C543,392.6,541.6,400.8,537.1,404.5"/>
	<path class="st1" d="M590.8,441.1c0,0,0-0.7,0.7-0.7c0,0,0-0.7,0.7-0.7c8.9-23.9,18.6-48.4,27.6-72.3c0-0.7,0.7-0.7,0.7-1.5h-19.4
		c-3.7,11.2-7.5,21.6-11.2,32.8c-3.7-11.2-7.5-21.6-11.9-32.8h-18.6c0,0.7,0.7,1.5,0.7,2.2c6.7,17.1,13.4,33.5,20.1,50.7
		c0.7,0.7,0.7,2.2,0,3c-1.5,4.5-3.7,8.2-5.2,12.7c-0.7,2.2-2.2,5.2-3,7.5C578.1,441.1,584.8,441.1,590.8,441.1"/>
	<path class="st1" d="M470,422.4h17.1v-76.8H470C469.3,348.6,469.3,420.9,470,422.4"/>
	<path class="st1" d="M171.9,416.5c-2.2,1.5-4.5,3.7-6.7,5.2h11.9v-11.2C175.6,412.7,174.1,415,171.9,416.5"/>
	<path class="st1" d="M71.2,239.8c3,0,5.2-1.5,6-4.5c0.7-3,0.7-6,0-8.9c-0.7-2.2-3-3.7-5.2-3.7h-5.2v17.9
		C68.3,239.8,69.8,239.8,71.2,239.8"/>
	<path class="st1" d="M110,235.4c2.2-3,1.5-7.5-0.7-10.4c-2.2-3-6.7-3.7-10.4-2.2c-3,1.5-5.2,4.5-5.2,7.5
		C101.1,227.2,105.5,230.9,110,235.4"/>
	<path class="st1" d="M50.4,225.7c0-2.2-0.7-3-3-3.7c-1.5,0-3.7,0.7-5.2,0.7v7.5c2.2,0,3.7,0,6-0.7
		C49.6,229.4,50.4,227.9,50.4,225.7"/>
	<path class="st1" d="M94.4,235.4c2.2,4.5,7.5,6.7,10.4,3.7C102.6,235.4,98.1,233.9,94.4,235.4"/>
</g>
</svg>
